<?xml version="1.0" encoding="UTF-8"?>
<svg xmlns="http://www.w3.org/2000/svg" xmlns:xlink="http://www.w3.org/1999/xlink" width="116" height="116" viewBox="0 0 116 116">
  <defs>
    <clipPath id="b">
      <rect width="116" height="116"></rect>
    </clipPath>
  </defs>
  <g id="a" clip-path="url(#b)">
    <g transform="translate(-0.08)">
      <path d="M58,111.73A218.253,218.253,0,0,0,81.28,97.94c16.09-11.1,25.51-28.24,25.51-46.39V21.1C83.32,17.69,58.01,4.29,58.01,4.29S32.7,17.69,9.23,21.1V51.55c0,18.15,9.41,35.29,25.51,46.39a215.6,215.6,0,0,0,23.28,13.79Z" fill="#3f5d8c"></path>
      <path d="M58,116l-2.08-1.08a225.361,225.361,0,0,1-23.73-14.06A64.67,64.67,0,0,1,12.22,79.02,57.259,57.259,0,0,1,5.08,51.55V17.96l3.47-.5C30.95,14.2,55.65,1.24,55.89,1.11L58,0l2.11,1.11c.25.13,24.94,13.09,47.34,16.34l3.47.5V51.54a57.259,57.259,0,0,1-7.14,27.47,64.577,64.577,0,0,1-19.97,21.84,220.983,220.983,0,0,1-23.73,14.06L58,115.99ZM13.35,24.17V51.54c0,16.9,8.93,33.15,23.9,43.47A210.9,210.9,0,0,0,58,107.45,207.812,207.812,0,0,0,78.75,95.01c14.97-10.32,23.9-26.57,23.9-43.47V24.17C83.47,20.68,64.29,11.67,58,8.54c-6.29,3.13-25.47,12.15-44.65,15.63Z" fill="#3f5d8c"></path>
      <path d="M58.09,114.17l-1.36-.7A220,220,0,0,1,33.39,99.64,62.622,62.622,0,0,1,14.02,78.45,55.534,55.534,0,0,1,7.09,51.8V19.61l2.26-.33C31.81,16.01,56.47,3.07,56.72,2.94l1.38-.73,1.38.73c.25.13,24.91,13.08,47.36,16.34l2.26.33V51.8a55.563,55.563,0,0,1-6.93,26.65A62.622,62.622,0,0,1,82.8,99.64a218.321,218.321,0,0,1-23.34,13.83l-1.36.7Zm-45.6-90.5V51.8c0,17.11,9.05,33.57,24.2,44.03a210.812,210.812,0,0,0,21.4,12.77,211.923,211.923,0,0,0,21.4-12.77c15.16-10.45,24.2-26.91,24.2-44.03V23.67C83.77,20.28,63.52,10.53,58.09,7.79c-5.43,2.74-25.68,12.49-45.6,15.88Z" fill="#fff"></path>
      <path d="M24.32,40l-.67-2.21H20.26L19.59,40H17.47l3.28-9.33h2.41L26.45,40H24.33Zm-1.14-3.86c-.62-2-.97-3.14-1.05-3.4s-.13-.47-.17-.62q-.21.81-1.2,4.02Z" fill="#fff"></path>
      <path d="M29.4,40H27.46V30.11H29.4Z" fill="#fff"></path>
      <path d="M33.37,40H31.43V30.11h1.94Z" fill="#fff"></path>
      <path d="M38.94,40V30.71h1.97V40Z" fill="#fff"></path>
      <path d="M49.66,40H47.72V35.85a1.992,1.992,0,0,0-.27-1.15.977.977,0,0,0-.87-.38,1.332,1.332,0,0,0-1.18.54,3.372,3.372,0,0,0-.36,1.8V40H43.1V32.89h1.48l.26.91h.11a2.11,2.11,0,0,1,.89-.78,2.975,2.975,0,0,1,1.29-.26,2.468,2.468,0,0,1,1.88.67,2.687,2.687,0,0,1,.64,1.94V40Z" fill="#fff"></path>
      <path d="M56.62,37.89a1.966,1.966,0,0,1-.76,1.67,3.76,3.76,0,0,1-2.27.57,7.1,7.1,0,0,1-1.32-.1,4.661,4.661,0,0,1-1.02-.31v-1.6a7.24,7.24,0,0,0,1.22.43,5.147,5.147,0,0,0,1.19.17c.7,0,1.06-.2,1.06-.61a.514.514,0,0,0-.14-.37,1.78,1.78,0,0,0-.48-.32c-.23-.12-.53-.26-.92-.42a5.27,5.27,0,0,1-1.2-.64,1.767,1.767,0,0,1-.56-.67,2.148,2.148,0,0,1-.17-.93,1.723,1.723,0,0,1,.73-1.47,3.533,3.533,0,0,1,2.08-.52,5.818,5.818,0,0,1,2.5.56l-.58,1.4c-.36-.15-.69-.28-1-.38a3.045,3.045,0,0,0-.95-.15c-.57,0-.86.15-.86.46a.543.543,0,0,0,.28.45,7.091,7.091,0,0,0,1.21.57,5.8,5.8,0,0,1,1.22.63,1.878,1.878,0,0,1,.57.67,2.11,2.11,0,0,1,.18.91Z" fill="#fff"></path>
      <path d="M61.12,38.59a4.1,4.1,0,0,0,1.22-.22v1.44a4.293,4.293,0,0,1-1.78.32,2.164,2.164,0,0,1-1.69-.59,2.571,2.571,0,0,1-.53-1.76V34.35h-.93v-.82l1.07-.65.56-1.5h1.24v1.51h1.99v1.46H60.28v3.43a.763.763,0,0,0,.23.61.914.914,0,0,0,.61.2Z" fill="#fff"></path>
      <path d="M68.29,40l-.38-.97h-.05a2.762,2.762,0,0,1-1.01.85,3.264,3.264,0,0,1-1.35.24,2.178,2.178,0,0,1-1.61-.58,2.267,2.267,0,0,1-.59-1.67,1.913,1.913,0,0,1,.79-1.67,4.5,4.5,0,0,1,2.39-.59l1.23-.04v-.31a.968.968,0,0,0-1.11-1.08,5.033,5.033,0,0,0-2,.51l-.64-1.31a5.744,5.744,0,0,1,2.72-.64,3.326,3.326,0,0,1,2.19.62,2.3,2.3,0,0,1,.76,1.89v4.74H68.28Zm-.57-3.29-.75.03a2.421,2.421,0,0,0-1.26.31.948.948,0,0,0-.41.85c0,.55.31.82.94.82a1.491,1.491,0,0,0,1.08-.39,1.356,1.356,0,0,0,.4-1.03v-.58Z" fill="#fff"></path>
      <path d="M73.58,40H71.64V30.11h1.94Z" fill="#fff"></path>
      <path d="M77.56,40H75.62V30.11h1.94Z" fill="#fff"></path>
      <path d="M82.81,40.13a3.669,3.669,0,0,1-2.68-.95,3.607,3.607,0,0,1-.97-2.68,4.034,4.034,0,0,1,.89-2.76,3.179,3.179,0,0,1,2.47-.98,3.081,3.081,0,0,1,2.35.86,3.236,3.236,0,0,1,.84,2.37v.94H81.13a1.841,1.841,0,0,0,.49,1.29,1.7,1.7,0,0,0,1.28.46,5.221,5.221,0,0,0,1.21-.13,6.019,6.019,0,0,0,1.2-.43v1.5a4.4,4.4,0,0,1-1.09.38,7.127,7.127,0,0,1-1.41.12Zm-.27-5.99a1.251,1.251,0,0,0-.97.39,1.744,1.744,0,0,0-.4,1.11h2.72a1.539,1.539,0,0,0-.38-1.11,1.273,1.273,0,0,0-.98-.39Z" fill="#fff"></path>
      <path d="M91.25,32.76a2.933,2.933,0,0,1,.65.06l-.15,1.82a2.373,2.373,0,0,0-.57-.06,2.063,2.063,0,0,0-1.45.48,1.712,1.712,0,0,0-.52,1.34v3.62H87.27V32.91h1.47l.29,1.19h.1a2.652,2.652,0,0,1,.89-.96,2.214,2.214,0,0,1,1.22-.37Z" fill="#fff"></path>
      <path d="M98.16,37.89a1.966,1.966,0,0,1-.76,1.67,3.76,3.76,0,0,1-2.27.57,7.1,7.1,0,0,1-1.32-.1,4.661,4.661,0,0,1-1.02-.31v-1.6a7.24,7.24,0,0,0,1.22.43,5.147,5.147,0,0,0,1.19.17c.7,0,1.06-.2,1.06-.61a.514.514,0,0,0-.14-.37,1.78,1.78,0,0,0-.48-.32c-.23-.12-.53-.26-.92-.42a5.27,5.27,0,0,1-1.2-.64,1.767,1.767,0,0,1-.56-.67,2.148,2.148,0,0,1-.17-.93,1.723,1.723,0,0,1,.73-1.47,3.533,3.533,0,0,1,2.08-.52,5.818,5.818,0,0,1,2.5.56l-.58,1.4c-.36-.15-.69-.28-1-.38a3.045,3.045,0,0,0-.95-.15c-.57,0-.86.15-.86.46a.543.543,0,0,0,.28.45,7.091,7.091,0,0,0,1.21.57,5.8,5.8,0,0,1,1.22.63,1.878,1.878,0,0,1,.57.67,2.11,2.11,0,0,1,.18.91Z" fill="#fff"></path>
      <path d="M20.46,57.16V44.51h3.43V57.16H20.46Z" fill="#fff"></path>
      <path d="M38.67,57.16H34.19l-4.62-8.91h-.08c.11,1.4.17,2.47.17,3.21v5.7H26.63V44.51h4.46l4.6,8.79h.05c-.08-1.27-.12-2.3-.12-3.07V44.51h3.05V57.16Z" fill="#fff"></path>
      <path d="M49.67,53.31a3.733,3.733,0,0,1-.6,2.09,3.924,3.924,0,0,1-1.72,1.42,6.344,6.344,0,0,1-2.64.51,10.535,10.535,0,0,1-2.12-.18,7.57,7.57,0,0,1-1.78-.62V53.48a10.01,10.01,0,0,0,2.03.78,7.444,7.444,0,0,0,1.94.28,1.947,1.947,0,0,0,1.12-.26.8.8,0,0,0,.35-.68.775.775,0,0,0-.14-.45,1.7,1.7,0,0,0-.46-.39q-.315-.2-1.68-.81a8.058,8.058,0,0,1-1.86-1.09,3.423,3.423,0,0,1-.92-1.21,4,4,0,0,1-.3-1.62,3.248,3.248,0,0,1,1.27-2.73,5.621,5.621,0,0,1,3.5-.98,9.788,9.788,0,0,1,4.01.91l-1.05,2.64a7.587,7.587,0,0,0-3.06-.81,1.648,1.648,0,0,0-.97.23.7.7,0,0,0-.3.58.858.858,0,0,0,.38.67,14.449,14.449,0,0,0,2.09,1.07,5.767,5.767,0,0,1,2.27,1.58,3.446,3.446,0,0,1,.64,2.12Z" fill="#fff"></path>
      <path d="M62.38,44.51v7.61a5.1,5.1,0,0,1-1.41,3.85,5.588,5.588,0,0,1-4.05,1.36,5.509,5.509,0,0,1-3.98-1.32,4.993,4.993,0,0,1-1.39-3.81V44.51h3.43v7.42a3.1,3.1,0,0,0,.5,1.95,2.162,2.162,0,0,0,3,.01,3.259,3.259,0,0,0,.47-1.97V44.51h3.42Z" fill="#fff"></path>
      <path d="M68.46,52.55v4.6H65.04V44.5h4.14q5.16,0,5.16,3.74a3.743,3.743,0,0,1-2.15,3.4l3.69,5.51H72l-2.68-4.6h-.87Zm0-2.57h.64c1.19,0,1.79-.53,1.79-1.58,0-.87-.59-1.31-1.76-1.31h-.67v2.89Z" fill="#fff"></path>
      <path d="M84.54,57.16H77.03V44.51h7.51v2.74H80.45v1.99h3.79v2.74H80.45v2.39h4.09v2.79Z" fill="#fff"></path>
      <path d="M97.49,50.56a6.541,6.541,0,0,1-1.74,4.88,6.7,6.7,0,0,1-4.9,1.71H86.76V44.5h4.38a6.584,6.584,0,0,1,4.7,1.56,5.9,5.9,0,0,1,1.66,4.5Zm-3.54.12a4.016,4.016,0,0,0-.69-2.58,2.552,2.552,0,0,0-2.09-.84h-1v7.09h.76a2.746,2.746,0,0,0,2.28-.9,4.376,4.376,0,0,0,.73-2.76Z" fill="#fff"></path>
      <path d="M76.22,60.66,53.13,83.75,41.11,71.74l-5.23,5.23L53.12,94.21l.01-.01v.01L81.45,65.89Z" fill="#fff"></path>
    </g>
  </g>
</svg>
