<?xml version="1.0" encoding="UTF-8"?>
<svg xmlns="http://www.w3.org/2000/svg" xmlns:xlink="http://www.w3.org/1999/xlink" width="116" height="116" viewBox="0 0 116 116">
  <defs>
    <clipPath id="b">
      <rect width="116" height="116"></rect>
    </clipPath>
  </defs>
  <g id="a" clip-path="url(#b)">
    <g transform="translate(0 -0.04)">
      <path d="M58,.04l4.35,4.14L67.31.8l3.63,4.77,5.44-2.54,2.82,5.3,5.78-1.64,1.93,5.69,5.96-.69,1,5.92,5.99.27.04,6,5.87,1.24-.93,5.93,5.6,2.16-1.87,5.7,5.19,3.03L111,47.27l4.62,3.83-3.58,4.82L116,60.43l-4.31,4.18,3.18,5.1-4.92,3.43,2.32,5.54-5.4,2.6,1.4,5.84-5.76,1.7.45,5.99-5.95.76-.52,5.98-6-.21-1.47,5.82-5.88-1.17-2.39,5.51-5.62-2.1-3.24,5.06-5.21-2.97-4.01,4.47L58,112.19l-4.67,3.77-4.01-4.47-5.21,2.97-3.24-5.06-5.62,2.1-2.39-5.51-5.88,1.17-1.47-5.82-6,.21-.52-5.98-5.95-.76.45-5.99-5.76-1.7,1.4-5.84-5.4-2.6,2.32-5.54L1.13,69.71l3.18-5.1L0,60.43l3.96-4.51L.38,51.1,5,47.27,2.24,41.94l5.19-3.03-1.87-5.7,5.6-2.16-.93-5.93,5.87-1.24.04-6,5.99-.27,1-5.92,5.96.69,1.93-5.69L36.8,8.33l2.82-5.3,5.44,2.54L48.69.8l4.96,3.38Z" fill="#3f5d8c" stroke="#000" stroke-miterlimit="10" stroke-width="0.25"></path>
      <path d="M26.51,27.83l3.04-2.44,3.04,3.79a10.932,10.932,0,0,1-2.38,2.61,4.222,4.222,0,0,1-3.27,1.08,4.82,4.82,0,0,1-3.05-1.98,4.548,4.548,0,0,1-1.16-3.43,4.756,4.756,0,0,1,1.96-3.13,7.242,7.242,0,0,1,1.35-.88,7.386,7.386,0,0,1,1.28-.51l.6,1.97a4.786,4.786,0,0,0-1.97.97,2.013,2.013,0,0,0-.85,1.57,3.02,3.02,0,0,0,.79,1.91,3.01,3.01,0,0,0,1.62,1.17,1.831,1.831,0,0,0,1.6-.44,4.329,4.329,0,0,0,.71-.71l-.88-1.1-1.26,1.01L26.5,27.82Z" fill="#fff"></path>
      <path d="M39.62,20.82a4.817,4.817,0,0,1,.56,3.59,4.287,4.287,0,0,1-2.38,2.53,4.3,4.3,0,0,1-3.44.41,4.891,4.891,0,0,1-2.58-2.58,4.819,4.819,0,0,1-.55-3.58,4.294,4.294,0,0,1,2.39-2.54,4.243,4.243,0,0,1,3.44-.42,4.836,4.836,0,0,1,2.55,2.59Zm-5.54,2.8c.79,1.56,1.72,2.06,2.81,1.51a1.575,1.575,0,0,0,.94-1.19,3.558,3.558,0,0,0-.49-1.97,3.542,3.542,0,0,0-1.31-1.58,1.519,1.519,0,0,0-1.5.04q-1.635.825-.44,3.18Z" fill="#fff"></path>
      <path d="M43,24.5l-2.48-8.67,2.34-.67,1.94,6.78,3.34-.96.54,1.89Z" fill="#fff"></path>
      <path d="M56.98,17.17a4.689,4.689,0,0,1-.89,3.59,4.776,4.776,0,0,1-3.36,1.56l-2.9.29-.9-8.98,3.11-.31a4.732,4.732,0,0,1,3.45.77,4.188,4.188,0,0,1,1.5,3.08Zm-2.5.34a2.877,2.877,0,0,0-.67-1.78,1.853,1.853,0,0,0-1.54-.45l-.71.07.5,5.03.54-.05a1.959,1.959,0,0,0,1.56-.8,3.1,3.1,0,0,0,.32-2.01Z" fill="#fff"></path>
      <path d="M68.3,20.28a2.7,2.7,0,0,1-.64,1.41,2.808,2.808,0,0,1-1.36.82,4.49,4.49,0,0,1-1.92.08,8.094,8.094,0,0,1-1.48-.35,5.436,5.436,0,0,1-1.19-.62l.32-2.15a7.84,7.84,0,0,0,1.35.77,5.159,5.159,0,0,0,1.34.4,1.381,1.381,0,0,0,.82-.07.59.59,0,0,0,.27-.78,1.291,1.291,0,0,0-.28-.33,10.766,10.766,0,0,0-1.1-.75,5.686,5.686,0,0,1-1.19-.96,2.408,2.408,0,0,1-.52-.95,2.818,2.818,0,0,1-.04-1.17,2.323,2.323,0,0,1,1.18-1.79,3.98,3.98,0,0,1,2.57-.32,7.074,7.074,0,0,1,2.73,1.06l-1.02,1.75a5.413,5.413,0,0,0-2.07-.9,1.119,1.119,0,0,0-.71.06.481.481,0,0,0-.27.38.575.575,0,0,0,.2.51,10.025,10.025,0,0,0,1.36.98,4.122,4.122,0,0,1,1.44,1.35,2.449,2.449,0,0,1,.22,1.57Z" fill="#fff"></path>
      <path d="M72.86,24.52l-2.32-.74,2.14-6.69-2.1-.67.61-1.9L77.7,16.6l-.61,1.9L75,17.83l-2.14,6.69Z" fill="#fff"></path>
      <path d="M80.79,28.17l.4-1.7L78.6,25.09l-1.2,1.28-2.36-1.26L81.9,18.5l2.87,1.53-1.63,9.4-2.35-1.25Zm.89-3.7.35-1.49c.08-.33.18-.76.31-1.28s.23-.89.3-1.11c-.13.17-.36.44-.68.81s-.98,1.1-1.98,2.17l1.69.9Z" fill="#fff"></path>
      <path d="M87.61,28.89l-2.06,2.55-1.9-1.53,5.67-7.02,2.3,1.86c1.91,1.54,2.3,3,1.19,4.38a2.657,2.657,0,0,1-2.71.92l-.43,4.71-2.15-1.74.58-3.76-.48-.39Zm1.15-1.43.36.29c.66.54,1.23.51,1.7-.08.39-.48.26-.99-.39-1.51l-.38-.3-1.29,1.6Z" fill="#fff"></path>
      <path d="M28.98,92.57l-2.03-2.05,2.19-3.38c.09-.14.27-.42.56-.83s.53-.74.74-1c-.21.17-.49.36-.82.59s-.65.43-.93.62-1.46.92-3.51,2.21l-2.03-2.05,4.84-7.93,1.65,1.67L27.12,84.3c-.55.86-1.01,1.53-1.38,2,.34-.26.81-.59,1.42-1s1.12-.74,1.54-.98l2.99-1.83,1.59,1.61L31.4,87.05c-.3.48-.65,1.02-1.06,1.62s-.73,1.04-.95,1.32c.36-.28,1.03-.74,2-1.36l3.93-2.48,1.65,1.67-7.98,4.77Z" fill="#fff"></path>
      <path d="M37.87,98.24l.43-1.69-2.56-1.42-1.22,1.26-2.34-1.3,6.97-6.49,2.84,1.58-1.8,9.36-2.33-1.29Zm.96-3.68.38-1.48c.08-.33.19-.76.33-1.28s.25-.89.32-1.11c-.13.17-.37.43-.7.8s-1,1.08-2.02,2.13l1.68.93Z" fill="#fff"></path>
      <path d="M45.61,97.8l-.91,3.15-2.34-.68,2.5-8.67,2.84.82q3.54,1.02,2.8,3.58a2.675,2.675,0,0,1-2.14,1.91l1.44,4.5-2.66-.77-.93-3.68-.59-.17Zm.51-1.76.44.13c.82.24,1.33,0,1.54-.73.17-.6-.14-1.01-.95-1.24l-.46-.13-.57,1.98Z" fill="#fff"></path>
      <path d="M54.49,99.53l-.21,3.28-2.43-.15.56-9,2.95.18c2.45.15,3.62,1.12,3.5,2.89a2.677,2.677,0,0,1-1.68,2.33l2.38,4.09-2.76-.17-1.7-3.4-.62-.04Zm.12-1.83.46.03q1.275.075,1.35-1.05c.04-.62-.36-.96-1.19-1.01l-.48-.03-.13,2.06Z" fill="#fff"></path>
      <path d="M67.12,102.06l-.71-1.6-2.89.47-.18,1.74-2.64.43,1.46-9.41,3.21-.52,4.39,8.47-2.63.43ZM65.6,98.57l-.62-1.4c-.14-.31-.32-.71-.53-1.21s-.36-.85-.43-1.07c0,.21-.02.57-.05,1.06s-.12,1.47-.26,2.92l1.89-.31Z" fill="#fff"></path>
      <path d="M79.93,97.48,77,98.76l-5.57-4.5-.05.02c.47.88.81,1.57,1.03,2.05l1.63,3.73-1.98.87-3.62-8.27,2.92-1.28,5.52,4.43h.03c-.42-.82-.74-1.48-.96-1.99l-1.63-3.74,1.99-.87,3.62,8.27Z" fill="#fff"></path>
      <path d="M85.87,93.29l-1.95,1.46-4.21-5.63-1.76,1.32-1.19-1.6,5.48-4.09,1.19,1.6-1.76,1.32,4.21,5.63Z" fill="#fff"></path>
      <path d="M87.52,83.9l-1.49-3.38,1.74-1.98,2.17,5.86,2.65,2.32-1.62,1.85-2.59-2.28-6.15-1.45,1.75-1.99,3.53,1.05Z" fill="#fff"></path>
      <path d="M59.93,27.69l7.59,15.38a2.182,2.182,0,0,0,1.62,1.18l16.97,2.47a2.151,2.151,0,0,1,1.19,3.67L75.02,62.36a2.138,2.138,0,0,0-.62,1.9l2.9,16.91a2.151,2.151,0,0,1-3.12,2.27L59,75.46a2.144,2.144,0,0,0-2,0L41.82,83.44a2.151,2.151,0,0,1-3.12-2.27l2.9-16.91a2.13,2.13,0,0,0-.62-1.9L28.7,50.39a2.152,2.152,0,0,1,1.19-3.67l16.97-2.47a2.135,2.135,0,0,0,1.62-1.18l7.59-15.38a2.152,2.152,0,0,1,3.86,0Z" fill="#db8c3f"></path>
      <path d="M23.01,62.74V55.58h1.94v7.16Z" fill="#fff"></path>
      <path d="M33.32,62.74H30.78l-2.62-5.05h-.04c.06.79.09,1.4.09,1.82v3.23H26.5V55.58h2.53l2.61,4.98h.03c-.05-.72-.07-1.3-.07-1.74V55.58h1.72v7.16Z" fill="#fff"></path>
      <path d="M39.55,60.57a2.067,2.067,0,0,1-.34,1.18,2.241,2.241,0,0,1-.98.8,3.6,3.6,0,0,1-1.49.29,5.783,5.783,0,0,1-1.2-.1,4.506,4.506,0,0,1-1.01-.35V60.67a5.35,5.35,0,0,0,1.15.44,4.118,4.118,0,0,0,1.1.16,1.043,1.043,0,0,0,.63-.15.462.462,0,0,0,.12-.64.734.734,0,0,0-.26-.22c-.12-.07-.44-.23-.95-.46a4.318,4.318,0,0,1-1.05-.62,1.91,1.91,0,0,1-.52-.69,2.324,2.324,0,0,1-.17-.92,1.831,1.831,0,0,1,.72-1.54,3.169,3.169,0,0,1,1.98-.55,5.6,5.6,0,0,1,2.27.51l-.59,1.49a4.256,4.256,0,0,0-1.73-.46.911.911,0,0,0-.55.13.417.417,0,0,0-.17.33.468.468,0,0,0,.22.38,9.561,9.561,0,0,0,1.18.61,3.383,3.383,0,0,1,1.29.89,1.944,1.944,0,0,1,.36,1.2Z" fill="#fff"></path>
      <path d="M43.81,62.74H41.88V57.16H40.13V55.58h5.43v1.58H43.82v5.58Z" fill="#fff"></path>
      <path d="M50.97,62.74l-.35-1.34H48.29l-.36,1.34H45.8l2.34-7.19h2.58l2.37,7.19Zm-.75-2.92-.31-1.18c-.07-.26-.16-.6-.26-1.01s-.17-.71-.2-.89c-.03.17-.09.44-.17.82S49,58.7,48.7,59.82Z" fill="#fff"></path>
      <path d="M53.86,62.74V55.58h1.93v5.6h2.76v1.56Z" fill="#fff"></path>
      <path d="M59.7,62.74V55.58h1.94v5.6H64.4v1.56H59.71Z" fill="#fff"></path>
      <path d="M69.93,62.74l-.35-1.34H67.25l-.36,1.34H64.76l2.34-7.19h2.58l2.37,7.19Zm-.75-2.92-.31-1.18c-.07-.26-.16-.6-.26-1.01s-.17-.71-.2-.89c-.03.17-.09.44-.17.82s-.28,1.14-.58,2.26Z" fill="#fff"></path>
      <path d="M75.98,62.74H74.04V57.16H72.29V55.58h5.43v1.58H75.98v5.58Z" fill="#fff"></path>
      <path d="M78.75,62.74V55.58H80.7v7.16Z" fill="#fff"></path>
      <path d="M88.94,59.15a3.887,3.887,0,0,1-.89,2.75,3.4,3.4,0,0,1-2.6.94,3.331,3.331,0,0,1-2.58-.95,4.642,4.642,0,0,1-.01-5.48,3.409,3.409,0,0,1,2.6-.94,3.371,3.371,0,0,1,2.59.94,3.851,3.851,0,0,1,.88,2.75Zm-4.92,0c0,1.38.48,2.08,1.45,2.08a1.259,1.259,0,0,0,1.09-.5,2.745,2.745,0,0,0,.35-1.57,2.833,2.833,0,0,0-.36-1.59,1.235,1.235,0,0,0-1.08-.51c-.97,0-1.46.7-1.46,2.1Z" fill="#fff"></path>
      <path d="M97.05,62.74H94.51l-2.62-5.05h-.04c.06.79.09,1.4.09,1.82v3.23H90.23V55.58h2.53l2.61,4.98h.03c-.05-.72-.07-1.3-.07-1.74V55.58h1.72v7.16Z" fill="#fff"></path>
    </g>
  </g>
</svg>
