<?xml version="1.0" encoding="UTF-8"?>
<svg xmlns="http://www.w3.org/2000/svg" xmlns:xlink="http://www.w3.org/1999/xlink" width="116" height="116" viewBox="0 0 116 116">
  <defs>
    <clipPath id="b">
      <rect width="116" height="116"></rect>
    </clipPath>
  </defs>
  <g id="a" clip-path="url(#b)">
    <g transform="translate(0.365 0.363)">
      <path d="M112.02,42.91l-2.39,3.43a2,2,0,0,1-2.78.5l-3.87-2.68v60.7a7.5,7.5,0,0,1-7.5,7.5H20.51a7.5,7.5,0,0,1-7.5-7.5V44.16L9.14,46.84a2,2,0,0,1-2.78-.5L3.97,42.91a1.851,1.851,0,0,1,.47-2.59l18.33-12.7V12.02a1.882,1.882,0,0,1,1.87-1.88H36.98a1.876,1.876,0,0,1,1.87,1.88v4.45L56.89,3.99a1.94,1.94,0,0,1,2.23,0l52.44,36.33a1.86,1.86,0,0,1,.47,2.59Z" fill="#db8c3f"></path>
      <path d="M27.35,53.87a4.278,4.278,0,0,1-.68,2.38,4.52,4.52,0,0,1-1.96,1.62,7.3,7.3,0,0,1-3,.58,12.483,12.483,0,0,1-2.41-.2,8.915,8.915,0,0,1-2.03-.7V54.08a11.369,11.369,0,0,0,2.31.89,8.8,8.8,0,0,0,2.21.32,2.141,2.141,0,0,0,1.27-.3.919.919,0,0,0,.4-.77.845.845,0,0,0-.16-.52,1.848,1.848,0,0,0-.52-.45q-.36-.225-1.92-.93a9.291,9.291,0,0,1-2.11-1.24,3.71,3.71,0,0,1-1.04-1.38,4.511,4.511,0,0,1-.34-1.84,3.669,3.669,0,0,1,1.45-3.1,6.4,6.4,0,0,1,3.98-1.11,11.152,11.152,0,0,1,4.56,1.03l-1.19,3a8.628,8.628,0,0,0-3.49-.93,1.777,1.777,0,0,0-1.1.27.806.806,0,0,0-.34.66.962.962,0,0,0,.44.76,16.54,16.54,0,0,0,2.38,1.22,6.564,6.564,0,0,1,2.58,1.8,3.928,3.928,0,0,1,.72,2.42Z" fill="#fff"></path>
      <path d="M41.32,58.24H37.41V52.37H32.89v5.87H28.98V43.84h3.91v5.34h4.52V43.84h3.91v14.4Z" fill="#fff"></path>
      <path d="M57.3,51.02a7.791,7.791,0,0,1-1.78,5.53,6.841,6.841,0,0,1-5.22,1.89,6.791,6.791,0,0,1-5.2-1.9A7.719,7.719,0,0,1,43.29,51a7.614,7.614,0,0,1,1.8-5.49,6.884,6.884,0,0,1,5.23-1.9,6.835,6.835,0,0,1,5.21,1.88,7.785,7.785,0,0,1,1.77,5.53Zm-9.91,0c0,2.78.97,4.18,2.91,4.18a2.518,2.518,0,0,0,2.19-1.01,5.533,5.533,0,0,0,.71-3.16,5.658,5.658,0,0,0-.72-3.19,2.453,2.453,0,0,0-2.16-1.03c-1.95,0-2.93,1.4-2.93,4.22Z" fill="#fff"></path>
      <path d="M69.74,48.42a4.825,4.825,0,0,1-1.42,3.73,5.729,5.729,0,0,1-4.04,1.31H63.19v4.78H59.3V43.84h4.98a6.135,6.135,0,0,1,4.1,1.19,4.25,4.25,0,0,1,1.37,3.39ZM63.18,50.3h.71a1.919,1.919,0,0,0,1.39-.49,1.808,1.808,0,0,0,.52-1.36c0-.97-.54-1.46-1.62-1.46h-1V50.3Z" fill="#fff"></path>
      <path d="M84.9,58.24l-.71-2.7H79.51l-.73,2.7H74.51l4.7-14.46H84.4l4.76,14.46H84.91Zm-1.52-5.89-.62-2.36c-.14-.53-.32-1.21-.53-2.04s-.34-1.43-.41-1.79c-.06.33-.18.89-.35,1.65s-.56,2.28-1.16,4.54h3.06Z" fill="#fff"></path>
      <path d="M96.46,58.24H92.57V47.02H89.05V43.84H99.96v3.18H96.45V58.24Z" fill="#fff"></path>
      <path d="M35.57,85.66h-5.5V77.4H23.71v8.26h-5.5V65.4h5.5v7.51h6.36V65.4h5.5Z" fill="#fff"></path>
      <path d="M58.05,75.5q0,5.115-2.51,7.77T48.2,85.93c-3.22,0-5.61-.89-7.31-2.67s-2.54-4.38-2.54-7.79.84-5.95,2.53-7.72,4.14-2.67,7.35-2.67,5.67.88,7.33,2.65S58.05,72.09,58.05,75.5Zm-13.93,0q0,5.88,4.09,5.88a3.509,3.509,0,0,0,3.08-1.43,7.81,7.81,0,0,0,1-4.45,7.846,7.846,0,0,0-1.02-4.48,3.485,3.485,0,0,0-3.04-1.45c-2.74,0-4.12,1.98-4.12,5.93Z" fill="#fff"></path>
      <path d="M69.69,85.66,65.55,71.07h-.12q.285,3.735.29,5.79v8.8H60.87V65.4h7.29l4.23,14.38h.11L76.64,65.4h7.3V85.66H78.91V76.78c0-.46,0-.97.02-1.54s.08-1.94.19-4.14H79L74.91,85.66H69.7Z" fill="#fff"></path>
      <path d="M99.47,85.66H87.44V65.4H99.47v4.39H92.92v3.19h6.07v4.39H92.92v3.82h6.55v4.46Z" fill="#fff"></path>
      <rect width="75.37" height="1.16" transform="translate(20.34 91.16)" fill="#fff"></rect>
    </g>
  </g>
</svg>
