<?xml version="1.0" encoding="UTF-8"?>
<svg xmlns="http://www.w3.org/2000/svg" xmlns:xlink="http://www.w3.org/1999/xlink" width="116" height="116" viewBox="0 0 116 116">
  <defs>
    <clipPath id="b">
      <rect width="116" height="116"></rect>
    </clipPath>
  </defs>
  <g id="a" clip-path="url(#b)">
    <g transform="translate(0.14 -0.2)">
      <path d="M72.87,60.64c-5.11-4.86-9.8-7.13-14.35-5.9h-.06c-4.53,1.29-7.38,5.66-9.25,12.46C46.32,77.71,38.93,77.71,42.1,84.19c3.78,7.76,11.27,8.01,15.48,5.38,3.05-1.9,4.97-3.92,9.18-5.09s6.89-.43,10.49-.37c4.96.08,11.24-4,10.48-12.6-.64-7.18-6.96-3.37-14.86-10.88Z" fill="#3f5d8c"></path>
      <path d="M52.35,39.44c1.53,5.93.48,11.38-5.31,12.99s-9.61-2.48-11.25-8.38.72-15.85,5.01-17.89c3.9-1.85,9.06,3.62,11.56,13.29Z" fill="#3f5d8c"></path>
      <path d="M41.97,59.76c2.7,4.99,2.97,10.12-1.88,12.86s-9.19-.09-11.98-5.02-2.89-14.41.51-17.2C31.71,47.87,37.57,51.63,41.97,59.76Z" fill="#3f5d8c"></path>
      <path d="M55.82,38.47c1.75,5.87,5.46,9.99,11.25,8.38s6.95-7.09,5.31-12.99S63.59,20.65,58.86,21.12c-4.29.43-5.9,7.78-3.05,17.35Z" fill="#3f5d8c"></path>
      <path d="M75.32,50.5c.26,5.67,2.68,10.2,8.24,10.05s7.83-4.82,7.67-10.49-4.95-13.84-9.3-14.47c-3.95-.58-7.04,5.67-6.61,14.91Z" fill="#3f5d8c"></path>
      <path d="M23.1,96.47l-1.94-1.86,7-7.29,4.31,4.14-1.52,1.58-2.37-2.27-1.34,1.39,2.18,2.1L27.9,95.84l-2.18-2.1-2.63,2.74Z" fill="#db8c3f"></path>
      <path d="M27.64,100.46l5.59-8.42,2.27,1.51-4.37,6.58,3.24,2.15-1.22,1.84-5.51-3.67Z" fill="#db8c3f"></path>
      <path d="M46.4,104.24a5.43,5.43,0,0,1-2.55,3.17,4.818,4.818,0,0,1-3.9-.07,4.812,4.812,0,0,1-2.93-2.55,5.469,5.469,0,0,1,.2-4.08,5.38,5.38,0,0,1,2.56-3.15,4.819,4.819,0,0,1,3.9.07,4.768,4.768,0,0,1,2.94,2.54,5.459,5.459,0,0,1-.22,4.07Zm-6.49-2.49q-1.05,2.73.86,3.47a1.726,1.726,0,0,0,1.69-.12,3.877,3.877,0,0,0,1.26-1.89,3.977,3.977,0,0,0,.33-2.27,1.728,1.728,0,0,0-1.16-1.22q-1.92-.735-2.97,2.03Z" fill="#db8c3f"></path>
      <path d="M57.9,105.72a5.418,5.418,0,0,1-1.67,3.72,4.774,4.774,0,0,1-3.79.92,4.79,4.79,0,0,1-3.48-1.72,5.476,5.476,0,0,1-.84-4,5.383,5.383,0,0,1,1.67-3.69,4.8,4.8,0,0,1,3.79-.92,4.75,4.75,0,0,1,3.49,1.71,5.462,5.462,0,0,1,.82,3.99Zm-6.91-.76c-.21,1.94.36,2.99,1.71,3.13a1.765,1.765,0,0,0,1.61-.54,3.832,3.832,0,0,0,.74-2.15,3.979,3.979,0,0,0-.26-2.28,1.728,1.728,0,0,0-1.43-.88c-1.36-.15-2.15.76-2.36,2.72Z" fill="#db8c3f"></path>
      <path d="M62.88,106.6l.46,3.65-2.71.34-1.25-10.03,3.29-.41q4.08-.51,4.46,2.45a2.994,2.994,0,0,1-1.37,2.91l3.47,4-3.07.38-2.58-3.38-.69.08Zm-.26-2.03.51-.06c.95-.12,1.37-.6,1.26-1.43-.09-.69-.59-.98-1.52-.86l-.54.07.29,2.29Z" fill="#db8c3f"></path>
      <path d="M71.06,108.83l-2.88-9.69,2.63-.78,2.88,9.69Z" fill="#db8c3f"></path>
      <path d="M85.49,102.64l-3.18,1.65-6.56-4.61-.05.03c.59.95,1.03,1.69,1.3,2.21l2.1,4.04-2.15,1.12-4.67-8.96,3.16-1.65,6.5,4.53.04-.02c-.53-.87-.93-1.58-1.22-2.13L78.65,94.8l2.16-1.12,4.67,8.96Z" fill="#db8c3f"></path>
      <path d="M87.58,93.33l3.25-2.91,3.64,4.06a11.977,11.977,0,0,1-2.5,3.06,4.7,4.7,0,0,1-3.59,1.4,5.417,5.417,0,0,1-3.53-2.02,5.051,5.051,0,0,1-1.5-3.77,5.373,5.373,0,0,1,2-3.63,8.928,8.928,0,0,1,1.46-1.07,8.135,8.135,0,0,1,1.4-.65L89,89.97a5.419,5.419,0,0,0-2.15,1.2,2.3,2.3,0,0,0-.86,1.81,3.32,3.32,0,0,0,1,2.09,3.392,3.392,0,0,0,1.88,1.21,2.071,2.071,0,0,0,1.76-.58,5.163,5.163,0,0,0,.75-.83l-1.06-1.18-1.34,1.2-1.41-1.57Z" fill="#db8c3f"></path>
      <path d="M17.07,25.45a3.384,3.384,0,0,1,1.34,2.46,4.1,4.1,0,0,1-1.14,2.76l-.5.58,2.55,2.18L17.54,35.5,9.86,28.93l2.27-2.66a4.272,4.272,0,0,1,2.5-1.64,2.991,2.991,0,0,1,2.43.82Zm-2,4.35.32-.38a1.325,1.325,0,0,0,.37-.97,1.284,1.284,0,0,0-.49-.9.951.951,0,0,0-1.51.2l-.46.54,1.76,1.51Z" fill="#db8c3f"></path>
      <path d="M27.93,25.15l-4.58,3.88-6.53-7.71,4.58-3.88,1.42,1.67-2.5,2.11,1.03,1.21,2.31-1.96,1.42,1.67L22.77,24.1,24,25.56l2.5-2.11,1.44,1.7Z" fill="#db8c3f"></path>
      <path d="M33,21.92l-2.33,1.42-4.1-6.72L24.46,17.9,23.3,15.99,29.84,12,31,13.91l-2.1,1.28L33,21.91Z" fill="#db8c3f"></path>
      <path d="M42.11,17.87l-2.55.85L36.38,9.13l5.67-1.88.69,2.08-3.12,1.03.61,1.83,2.87-.95.69,2.08-2.87.95Z" fill="#db8c3f"></path>
      <path d="M48.74,12.41l.56,3.63-2.7.42L45.06,6.47l3.27-.51q4.065-.63,4.53,2.32a2.99,2.99,0,0,1-1.28,2.95l3.58,3.9-3.06.47-2.68-3.31-.68.11Zm-.32-2.02.5-.08c.94-.15,1.35-.64,1.22-1.47-.11-.69-.62-.96-1.55-.82l-.53.08.35,2.28Z" fill="#db8c3f"></path>
      <path d="M55.94,15.34l-.16-10.1,2.74-.04.16,10.1Z" fill="#db8c3f"></path>
      <path d="M66.65,15.95l-5.96-.64L61.77,5.26l5.96.64L67.5,8.08l-3.25-.35-.17,1.58,3.01.32-.24,2.18-3.01-.32-.21,1.9,3.25.35-.24,2.21Z" fill="#db8c3f"></path>
      <path d="M77.35,18.91l-3.42-1.05L72.48,9.97l-.06-.02c-.24,1.1-.45,1.93-.62,2.49L70.47,16.8l-2.31-.71,2.96-9.66,3.41,1.04,1.46,7.79h.04c.24-.98.45-1.77.63-2.36L78,8.53l2.33.71L77.37,18.9Z" fill="#db8c3f"></path>
      <path d="M89.08,19.31a5.248,5.248,0,0,1-3.12,2.72,5.349,5.349,0,0,1-4.08-.72l-2.85-1.6,4.94-8.81,3.05,1.71a5.321,5.321,0,0,1,2.67,2.92,4.722,4.722,0,0,1-.6,3.78Zm-2.52-1.3a3.24,3.24,0,0,0,.53-2.06,2.022,2.022,0,0,0-1.13-1.4l-.69-.39L82.5,19.1l.53.3a2.179,2.179,0,0,0,1.94.26,3.543,3.543,0,0,0,1.59-1.64Z" fill="#db8c3f"></path>
      <path d="M87.69,24.88l6.43-7.79,2.11,1.74L91.2,24.92l3,2.48-1.4,1.7-5.11-4.21Z" fill="#db8c3f"></path>
      <path d="M100.96,28.64l3.97-1.13,1.93,2.24-6.84,1.5-2.99,2.58-1.8-2.08,2.93-2.52,2.55-6.59,1.94,2.25-1.71,3.75Z" fill="#db8c3f"></path>
    </g>
  </g>
</svg>
