<?xml version="1.0" encoding="UTF-8"?>
<svg xmlns="http://www.w3.org/2000/svg" xmlns:xlink="http://www.w3.org/1999/xlink" width="116" height="116" viewBox="0 0 116 116">
  <defs>
    <clipPath id="b">
      <rect width="116" height="116"></rect>
    </clipPath>
  </defs>
  <g id="a" clip-path="url(#b)">
    <g transform="translate(-0.05 -0.03)">
      <path d="M31.25,26.22a1.507,1.507,0,0,0-1.02-.4,1.776,1.776,0,0,0-1.14.45,1.64,1.64,0,0,0-.1,2.42,8.3,8.3,0,0,1,1.04,1.79,1.852,1.852,0,0,1,1.49-.73h2.49a12.591,12.591,0,0,0-2.76-3.53Zm14.99.04a1.8,1.8,0,0,0-1.14-.45,1.543,1.543,0,0,0-1.03.4,12.591,12.591,0,0,0-2.76,3.53H43.8a1.9,1.9,0,0,1,1.49.73,8.057,8.057,0,0,1,1.04-1.79,1.633,1.633,0,0,0-.1-2.42Zm-2.43,4.25H31.52a1.1,1.1,0,0,0-1.1,1.1v2.48a1.1,1.1,0,0,0,1.1,1.1H43.81a1.1,1.1,0,0,0,1.1-1.1V31.61A1.1,1.1,0,0,0,43.81,30.51Zm-6.15-9.29a7.19,7.19,0,0,0-6.67,3.96,2.155,2.155,0,0,1,.79.48,13.259,13.259,0,0,1,3.1,4.09h5.58a13.032,13.032,0,0,1,3.1-4.09,2.464,2.464,0,0,1,.79-.48,7.229,7.229,0,0,0-6.67-3.96Zm-4.29,14.5-.14.83a.741.741,0,0,1-.73.61h0a.762.762,0,0,1-.75-.63l-.14-.81Zm10.3,0-.14.83a.741.741,0,0,1-.73.61h0a.762.762,0,0,1-.75-.63l-.14-.81Z" fill="#3f5d8c"></path>
      <path d="M68.77,25.62a1.441,1.441,0,0,0-1.41,1.47v2.29c-.3-.21-14.72-.21-15.02,0V27.09a1.411,1.411,0,1,0-2.82,0v6.35a1.441,1.441,0,0,0,1.41,1.47h.47l.1.33a.912.912,0,0,0,.87.65h0a.855.855,0,0,0,.82-.63l.09-.35H66.43l.11.43a.75.75,0,0,0,.72.55h.12a.858.858,0,0,0,.83-.63l.1-.35h.47a1.441,1.441,0,0,0,1.41-1.47V27.09a1.441,1.441,0,0,0-1.41-1.47Zm-9.13-2.09v4.25a.961.961,0,0,1-.94.98H54.01a.961.961,0,0,1-.94-.98V23.53a.961.961,0,0,1,.94-.98H58.7A.961.961,0,0,1,59.64,23.53Zm6.06-1.04H61.01a.961.961,0,0,0-.94.98v4.25a.961.961,0,0,0,.94.98H65.7a.961.961,0,0,0,.94-.98V23.47A.961.961,0,0,0,65.7,22.49Z" fill="#3f5d8c"></path>
      <path d="M103.98,32.95v1.88h4.7V32.95Zm2.24,1.27a.39.39,0,1,1,0-.78.384.384,0,0,1,.39.39A.39.39,0,0,1,106.22,34.22Zm-2.24-4.41v1.88h4.7V29.81Zm2.24,1.28a.39.39,0,1,1,0-.78.384.384,0,0,1,.39.39A.39.39,0,0,1,106.22,31.09Zm-8.51-8.8V34.83h4.7V22.29Zm3.8,6.29a.39.39,0,1,1,0-.78.39.39,0,0,1,.39.39A.4.4,0,0,1,101.51,28.58Zm2.47-6.29v6.27h4.7V22.29Zm.98,3.78a.39.39,0,0,1-.39-.39.39.39,0,0,1,.78,0A.39.39,0,0,1,104.96,26.07Zm-7.25-3.78V34.83h4.7V22.29Zm3.8,6.29a.39.39,0,1,1,0-.78.39.39,0,0,1,.39.39A.4.4,0,0,1,101.51,28.58Zm2.47-6.29v6.27h4.7V22.29Zm.98,3.78a.39.39,0,0,1-.39-.39.39.39,0,0,1,.78,0A.39.39,0,0,1,104.96,26.07Zm-.98,3.74v1.88h4.7V29.81Zm2.24,1.28a.39.39,0,1,1,0-.78.384.384,0,0,1,.39.39A.39.39,0,0,1,106.22,31.09Zm-2.24,1.86v1.88h4.7V32.95Zm2.24,1.27a.39.39,0,1,1,0-.78.384.384,0,0,1,.39.39A.39.39,0,0,1,106.22,34.22Zm-2.24-11.93v6.27h4.7V22.29Zm.98,3.78a.39.39,0,0,1-.39-.39.39.39,0,0,1,.78,0A.39.39,0,0,1,104.96,26.07Zm-.98,3.74v1.88h4.7V29.81Zm2.24,1.28a.39.39,0,1,1,0-.78.384.384,0,0,1,.39.39A.39.39,0,0,1,106.22,31.09Zm-2.24,1.86v1.88h4.7V32.95Zm2.24,1.27a.39.39,0,1,1,0-.78.384.384,0,0,1,.39.39A.39.39,0,0,1,106.22,34.22ZM97.71,22.29V34.83h4.7V22.29Zm3.8,6.29a.39.39,0,1,1,0-.78.39.39,0,0,1,.39.39A.4.4,0,0,1,101.51,28.58Zm-3.8-6.29V34.83h4.7V22.29Zm3.8,6.29a.39.39,0,1,1,0-.78.39.39,0,0,1,.39.39A.4.4,0,0,1,101.51,28.58Zm2.47-6.29v6.27h4.7V22.29Zm.98,3.78a.39.39,0,0,1-.39-.39.39.39,0,0,1,.78,0A.39.39,0,0,1,104.96,26.07Zm-.98,3.74v1.88h4.7V29.81Zm2.24,1.28a.39.39,0,1,1,0-.78.384.384,0,0,1,.39.39A.39.39,0,0,1,106.22,31.09Zm-2.24,1.86v1.88h4.7V32.95Zm2.24,1.27a.39.39,0,1,1,0-.78.384.384,0,0,1,.39.39A.39.39,0,0,1,106.22,34.22Zm-2.24-11.93v6.27h4.7V22.29Zm.98,3.78a.39.39,0,0,1-.39-.39.39.39,0,0,1,.78,0A.39.39,0,0,1,104.96,26.07Zm-.98,3.74v1.88h4.7V29.81Zm2.24,1.28a.39.39,0,1,1,0-.78.384.384,0,0,1,.39.39A.39.39,0,0,1,106.22,31.09Zm-2.24,1.86v1.88h4.7V32.95Zm2.24,1.27a.39.39,0,1,1,0-.78.384.384,0,0,1,.39.39A.39.39,0,0,1,106.22,34.22ZM97.71,22.29V34.83h4.7V22.29Zm3.8,6.29a.39.39,0,1,1,0-.78.39.39,0,0,1,.39.39A.4.4,0,0,1,101.51,28.58Zm-5.37-7.55V37.34h.7l.24-.94h5.64l.11.94h.67l.16-.94h5.64l.18.94h.76V21.03H96.13Zm6.59,14.11H97.4V21.97h5.33Zm6.27,0h-5.33V32.63H109Zm0-3.13h-5.33V29.5H109Zm0-3.14h-5.33v-6.9H109Zm-.31,4.08h-4.7v1.88h4.7Zm-2.47,1.27a.39.39,0,1,1,0-.78.384.384,0,0,1,.39.39A.39.39,0,0,1,106.22,34.22Zm2.47-4.41h-4.7v1.88h4.7Zm-2.47,1.28a.39.39,0,1,1,0-.78.384.384,0,0,1,.39.39A.39.39,0,0,1,106.22,31.09Zm2.47-8.8h-4.7v6.27h4.7Zm-3.73,3.78a.39.39,0,0,1-.39-.39.39.39,0,0,1,.78,0A.39.39,0,0,1,104.96,26.07Zm-2.55-3.78h-4.7V34.83h4.7Zm-.9,6.29a.39.39,0,1,1,0-.78.39.39,0,0,1,.39.39A.4.4,0,0,1,101.51,28.58Zm-3.8-6.29V34.83h4.7V22.29Zm3.8,6.29a.39.39,0,1,1,0-.78.39.39,0,0,1,.39.39A.4.4,0,0,1,101.51,28.58Zm2.47,4.37v1.88h4.7V32.95Zm2.24,1.27a.39.39,0,1,1,0-.78.384.384,0,0,1,.39.39A.39.39,0,0,1,106.22,34.22Zm-2.24-4.41v1.88h4.7V29.81Zm2.24,1.28a.39.39,0,1,1,0-.78.384.384,0,0,1,.39.39A.39.39,0,0,1,106.22,31.09Zm-2.24-8.8v6.27h4.7V22.29Zm.98,3.78a.39.39,0,0,1-.39-.39.39.39,0,0,1,.78,0A.39.39,0,0,1,104.96,26.07Zm-.98,6.88v1.88h4.7V32.95Zm2.24,1.27a.39.39,0,1,1,0-.78.384.384,0,0,1,.39.39A.39.39,0,0,1,106.22,34.22Zm-2.24-4.41v1.88h4.7V29.81Zm2.24,1.28a.39.39,0,1,1,0-.78.384.384,0,0,1,.39.39A.39.39,0,0,1,106.22,31.09Zm-2.24-8.8v6.27h4.7V22.29Zm.98,3.78a.39.39,0,0,1-.39-.39.39.39,0,0,1,.78,0A.39.39,0,0,1,104.96,26.07Zm-7.25-3.78V34.83h4.7V22.29Zm3.8,6.29a.39.39,0,1,1,0-.78.39.39,0,0,1,.39.39A.4.4,0,0,1,101.51,28.58Zm-3.8-6.29V34.83h4.7V22.29Zm3.8,6.29a.39.39,0,1,1,0-.78.39.39,0,0,1,.39.39A.4.4,0,0,1,101.51,28.58Zm2.47-6.29v6.27h4.7V22.29Zm.98,3.78a.39.39,0,0,1-.39-.39.39.39,0,0,1,.78,0A.39.39,0,0,1,104.96,26.07Zm-.98,3.74v1.88h4.7V29.81Zm2.24,1.28a.39.39,0,1,1,0-.78.384.384,0,0,1,.39.39A.39.39,0,0,1,106.22,31.09Zm-2.24,1.86v1.88h4.7V32.95Zm2.24,1.27a.39.39,0,1,1,0-.78.384.384,0,0,1,.39.39A.39.39,0,0,1,106.22,34.22Z" fill="#3f5d8c"></path>
      <path d="M6.05,22.17V36.21h.88V24.57H17.52v7.18h7.46v4.46h.88V22.17H6.05Zm18.93,8.7H18.4V28.16h6.58v2.71Zm0-3.59H18.4V24.57h6.58v2.71Zm-6.37-2.53V27.1h6.15V24.75Zm3.08,1.72a.548.548,0,0,1-.55-.55.534.534,0,0,1,.55-.54.54.54,0,0,1,.55.54A.548.548,0,0,1,21.69,26.47Zm-3.08,1.87v2.35h6.15V28.34Zm3.08,1.72a.548.548,0,0,1-.55-.55.55.55,0,1,1,.55.55Z" fill="#3f5d8c"></path>
      <path d="M81.24,26.51a18.462,18.462,0,0,0-4.07,0,1.986,1.986,0,0,0-.1,1.2h4.26a1.986,1.986,0,0,0-.1-1.2Zm-6.26-3.45v4.65h1.18a2.935,2.935,0,0,1,.3-1.82.479.479,0,0,1,.35-.25,19.2,19.2,0,0,1,4.79,0,.455.455,0,0,1,.35.25,2.935,2.935,0,0,1,.3,1.82h.93a2.935,2.935,0,0,1,.3-1.82.479.479,0,0,1,.35-.25,19.2,19.2,0,0,1,4.79,0,.455.455,0,0,1,.35.25,2.935,2.935,0,0,1,.3,1.82h1.18V23.06a20.816,20.816,0,0,0-15.48,0Zm13.28,3.45a18.462,18.462,0,0,0-4.07,0,1.986,1.986,0,0,0-.1,1.2h4.26a1.986,1.986,0,0,0-.1-1.2Zm3.17,2.1H74a.638.638,0,0,0-.64.64v3.39a.638.638,0,0,0,.64.64H91.43a.638.638,0,0,0,.64-.64V29.25A.638.638,0,0,0,91.43,28.61ZM90,33.74v2.62a.45.45,0,1,0,.9,0V33.74H90Zm-15.92-.03v2.62a.45.45,0,1,0,.9,0V33.71h-.9Z" fill="#3f5d8c"></path>
      <path d="M31.25,83.84a1.507,1.507,0,0,0-1.02-.4,1.776,1.776,0,0,0-1.14.45,1.64,1.64,0,0,0-.1,2.42,8.3,8.3,0,0,1,1.04,1.79,1.852,1.852,0,0,1,1.49-.73h2.49a12.591,12.591,0,0,0-2.76-3.53Zm14.99.05a1.8,1.8,0,0,0-1.14-.45,1.543,1.543,0,0,0-1.03.4,12.591,12.591,0,0,0-2.76,3.53H43.8a1.9,1.9,0,0,1,1.49.73,8.057,8.057,0,0,1,1.04-1.79,1.633,1.633,0,0,0-.1-2.42Zm-2.43,4.25H31.52a1.1,1.1,0,0,0-1.1,1.1v2.48a1.1,1.1,0,0,0,1.1,1.1H43.81a1.1,1.1,0,0,0,1.1-1.1V89.24A1.1,1.1,0,0,0,43.81,88.14Zm-6.15-9.3a7.19,7.19,0,0,0-6.67,3.96,2.155,2.155,0,0,1,.79.48,13.259,13.259,0,0,1,3.1,4.09h5.58a13.032,13.032,0,0,1,3.1-4.09,2.464,2.464,0,0,1,.79-.48,7.229,7.229,0,0,0-6.67-3.96Zm-4.29,14.5-.14.83a.741.741,0,0,1-.73.61h0a.762.762,0,0,1-.75-.63l-.14-.81h1.76Zm10.3,0-.14.83a.741.741,0,0,1-.73.61h0a.762.762,0,0,1-.75-.63l-.14-.81h1.76Z" fill="#3f5d8c"></path>
      <path d="M68.77,83.25a1.441,1.441,0,0,0-1.41,1.47v2.29c-.3-.21-14.72-.21-15.02,0V84.72a1.411,1.411,0,1,0-2.82,0v6.35a1.441,1.441,0,0,0,1.41,1.47h.47l.1.33a.912.912,0,0,0,.87.65h0a.855.855,0,0,0,.82-.63l.09-.35H66.43l.11.43a.75.75,0,0,0,.72.55h.12a.858.858,0,0,0,.83-.63l.1-.35h.47a1.441,1.441,0,0,0,1.41-1.47V84.72a1.441,1.441,0,0,0-1.41-1.47Zm-9.13-2.09v4.25a.961.961,0,0,1-.94.98H54.01a.961.961,0,0,1-.94-.98V81.16a.961.961,0,0,1,.94-.98H58.7A.961.961,0,0,1,59.64,81.16Zm6.06-1.04H61.01a.961.961,0,0,0-.94.98v4.25a.961.961,0,0,0,.94.98H65.7a.961.961,0,0,0,.94-.98V81.1A.961.961,0,0,0,65.7,80.12Z" fill="#3f5d8c"></path>
      <path d="M103.98,90.58v1.88h4.7V90.58Zm2.24,1.27a.39.39,0,0,1,0-.78.384.384,0,0,1,.39.39A.39.39,0,0,1,106.22,91.85Zm-2.24-4.41v1.88h4.7V87.44Zm2.24,1.28a.39.39,0,0,1,0-.78.384.384,0,0,1,.39.39A.39.39,0,0,1,106.22,88.72Zm-8.51-8.8V92.46h4.7V79.92Zm3.8,6.29a.39.39,0,0,1,0-.78.39.39,0,0,1,.39.39A.4.4,0,0,1,101.51,86.21Zm2.47-6.29v6.27h4.7V79.92Zm.98,3.78a.39.39,0,0,1-.39-.39.39.39,0,0,1,.78,0A.39.39,0,0,1,104.96,83.7Zm-7.25-3.78V92.46h4.7V79.92Zm3.8,6.29a.39.39,0,0,1,0-.78.39.39,0,0,1,.39.39A.4.4,0,0,1,101.51,86.21Zm2.47-6.29v6.27h4.7V79.92Zm.98,3.78a.39.39,0,0,1-.39-.39.39.39,0,0,1,.78,0A.39.39,0,0,1,104.96,83.7Zm-.98,3.74v1.88h4.7V87.44Zm2.24,1.28a.39.39,0,0,1,0-.78.384.384,0,0,1,.39.39A.39.39,0,0,1,106.22,88.72Zm-2.24,1.86v1.88h4.7V90.58Zm2.24,1.27a.39.39,0,0,1,0-.78.384.384,0,0,1,.39.39A.39.39,0,0,1,106.22,91.85Zm-2.24-11.93v6.27h4.7V79.92Zm.98,3.78a.39.39,0,0,1-.39-.39.39.39,0,0,1,.78,0A.39.39,0,0,1,104.96,83.7Zm-.98,3.74v1.88h4.7V87.44Zm2.24,1.28a.39.39,0,0,1,0-.78.384.384,0,0,1,.39.39A.39.39,0,0,1,106.22,88.72Zm-2.24,1.86v1.88h4.7V90.58Zm2.24,1.27a.39.39,0,0,1,0-.78.384.384,0,0,1,.39.39A.39.39,0,0,1,106.22,91.85ZM97.71,79.92V92.46h4.7V79.92Zm3.8,6.29a.39.39,0,0,1,0-.78.39.39,0,0,1,.39.39A.4.4,0,0,1,101.51,86.21Zm-3.8-6.29V92.46h4.7V79.92Zm3.8,6.29a.39.39,0,0,1,0-.78.39.39,0,0,1,.39.39A.4.4,0,0,1,101.51,86.21Zm2.47-6.29v6.27h4.7V79.92Zm.98,3.78a.39.39,0,0,1-.39-.39.39.39,0,0,1,.78,0A.39.39,0,0,1,104.96,83.7Zm-.98,3.74v1.88h4.7V87.44Zm2.24,1.28a.39.39,0,0,1,0-.78.384.384,0,0,1,.39.39A.39.39,0,0,1,106.22,88.72Zm-2.24,1.86v1.88h4.7V90.58Zm2.24,1.27a.39.39,0,0,1,0-.78.384.384,0,0,1,.39.39A.39.39,0,0,1,106.22,91.85Zm-2.24-11.93v6.27h4.7V79.92Zm.98,3.78a.39.39,0,0,1-.39-.39.39.39,0,0,1,.78,0A.39.39,0,0,1,104.96,83.7Zm-.98,3.74v1.88h4.7V87.44Zm2.24,1.28a.39.39,0,0,1,0-.78.384.384,0,0,1,.39.39A.39.39,0,0,1,106.22,88.72Zm-2.24,1.86v1.88h4.7V90.58Zm2.24,1.27a.39.39,0,0,1,0-.78.384.384,0,0,1,.39.39A.39.39,0,0,1,106.22,91.85ZM97.71,79.92V92.46h4.7V79.92Zm3.8,6.29a.39.39,0,0,1,0-.78.39.39,0,0,1,.39.39A.4.4,0,0,1,101.51,86.21Zm-5.37-7.55V94.97h.7l.24-.94h5.64l.11.94h.67l.16-.94h5.64l.18.94h.76V78.66H96.13Zm6.59,14.11H97.4V79.6h5.33Zm6.27,0h-5.33V90.26H109Zm0-3.13h-5.33V87.13H109Zm0-3.14h-5.33V79.6H109Zm-.31,4.08h-4.7v1.88h4.7Zm-2.47,1.27a.39.39,0,0,1,0-.78.384.384,0,0,1,.39.39A.39.39,0,0,1,106.22,91.85Zm2.47-4.41h-4.7v1.88h4.7Zm-2.47,1.28a.39.39,0,0,1,0-.78.384.384,0,0,1,.39.39A.39.39,0,0,1,106.22,88.72Zm2.47-8.8h-4.7v6.27h4.7Zm-3.73,3.78a.39.39,0,0,1-.39-.39.39.39,0,0,1,.78,0A.39.39,0,0,1,104.96,83.7Zm-2.55-3.78h-4.7V92.46h4.7Zm-.9,6.29a.39.39,0,0,1,0-.78.39.39,0,0,1,.39.39A.4.4,0,0,1,101.51,86.21Zm-3.8-6.29V92.46h4.7V79.92Zm3.8,6.29a.39.39,0,0,1,0-.78.39.39,0,0,1,.39.39A.4.4,0,0,1,101.51,86.21Zm2.47,4.37v1.88h4.7V90.58Zm2.24,1.27a.39.39,0,0,1,0-.78.384.384,0,0,1,.39.39A.39.39,0,0,1,106.22,91.85Zm-2.24-4.41v1.88h4.7V87.44Zm2.24,1.28a.39.39,0,0,1,0-.78.384.384,0,0,1,.39.39A.39.39,0,0,1,106.22,88.72Zm-2.24-8.8v6.27h4.7V79.92Zm.98,3.78a.39.39,0,0,1-.39-.39.39.39,0,0,1,.78,0A.39.39,0,0,1,104.96,83.7Zm-.98,6.88v1.88h4.7V90.58Zm2.24,1.27a.39.39,0,0,1,0-.78.384.384,0,0,1,.39.39A.39.39,0,0,1,106.22,91.85Zm-2.24-4.41v1.88h4.7V87.44Zm2.24,1.28a.39.39,0,0,1,0-.78.384.384,0,0,1,.39.39A.39.39,0,0,1,106.22,88.72Zm-2.24-8.8v6.27h4.7V79.92Zm.98,3.78a.39.39,0,0,1-.39-.39.39.39,0,0,1,.78,0A.39.39,0,0,1,104.96,83.7Zm-7.25-3.78V92.46h4.7V79.92Zm3.8,6.29a.39.39,0,0,1,0-.78.39.39,0,0,1,.39.39A.4.4,0,0,1,101.51,86.21Zm-3.8-6.29V92.46h4.7V79.92Zm3.8,6.29a.39.39,0,0,1,0-.78.39.39,0,0,1,.39.39A.4.4,0,0,1,101.51,86.21Zm2.47-6.29v6.27h4.7V79.92Zm.98,3.78a.39.39,0,0,1-.39-.39.39.39,0,0,1,.78,0A.39.39,0,0,1,104.96,83.7Zm-.98,3.74v1.88h4.7V87.44Zm2.24,1.28a.39.39,0,0,1,0-.78.384.384,0,0,1,.39.39A.39.39,0,0,1,106.22,88.72Zm-2.24,1.86v1.88h4.7V90.58Zm2.24,1.27a.39.39,0,0,1,0-.78.384.384,0,0,1,.39.39A.39.39,0,0,1,106.22,91.85Z" fill="#3f5d8c"></path>
      <path d="M6.05,79.79V93.83h.88V82.19H17.52v7.18h7.46v4.46h.88V79.79ZM24.98,88.5H18.4V85.79h6.58Zm0-3.59H18.4V82.2h6.58Zm-6.37-2.54v2.35h6.15V82.37Zm3.08,1.73a.548.548,0,0,1-.55-.55.534.534,0,0,1,.55-.54.54.54,0,0,1,.55.54A.548.548,0,0,1,21.69,84.1Zm-3.08,1.86v2.35h6.15V85.96Zm3.08,1.73a.548.548,0,0,1-.55-.55.55.55,0,1,1,.55.55Z" fill="#3f5d8c"></path>
      <path d="M81.24,84.14a18.462,18.462,0,0,0-4.07,0,1.986,1.986,0,0,0-.1,1.2h4.26a1.986,1.986,0,0,0-.1-1.2Zm-6.26-3.45v4.65h1.18a2.935,2.935,0,0,1,.3-1.82.479.479,0,0,1,.35-.25,19.2,19.2,0,0,1,4.79,0,.455.455,0,0,1,.35.25,2.935,2.935,0,0,1,.3,1.82h.93a2.935,2.935,0,0,1,.3-1.82.479.479,0,0,1,.35-.25,19.2,19.2,0,0,1,4.79,0,.455.455,0,0,1,.35.25,2.935,2.935,0,0,1,.3,1.82h1.18V80.69a20.816,20.816,0,0,0-15.48,0Zm13.28,3.45a18.462,18.462,0,0,0-4.07,0,1.986,1.986,0,0,0-.1,1.2h4.26a1.986,1.986,0,0,0-.1-1.2Zm3.17,2.1H74a.638.638,0,0,0-.64.64v3.39a.638.638,0,0,0,.64.64H91.43a.638.638,0,0,0,.64-.64V86.88A.638.638,0,0,0,91.43,86.24ZM90,91.36v2.62a.45.45,0,0,0,.9,0V91.36H90Zm-15.92-.02v2.62a.45.45,0,0,0,.9,0V91.34h-.9Z" fill="#3f5d8c"></path>
      <path d="M15.08,51.92H12.66l-.72-3.29c-.03-.14-.09-.41-.16-.82s-.13-.75-.16-1.03c-.03.22-.07.5-.13.84s-.12.64-.18.92-.31,1.41-.75,3.39H8.14L6.27,44.37H8.24l.82,3.79c.19.84.31,1.5.38,2,.04-.35.12-.83.24-1.43s.22-1.1.32-1.5l.67-2.86h1.89l.65,2.86c.11.46.22.99.34,1.59s.19,1.05.23,1.34c.04-.38.17-1.05.37-1.99l.84-3.8h1.97L15.1,51.93Z" fill="#3f5d8c"></path>
      <path d="M20.63,52.02a3.128,3.128,0,0,1-2.27-.78,2.938,2.938,0,0,1-.81-2.22,3.248,3.248,0,0,1,.75-2.28,2.793,2.793,0,0,1,2.14-.79,2.792,2.792,0,0,1,2.05.69,2.623,2.623,0,0,1,.72,1.99v.9H19.59a.979.979,0,0,0,.36.77,1.385,1.385,0,0,0,.92.28,4.279,4.279,0,0,0,.98-.1,5.146,5.146,0,0,0,.97-.34v1.45a3.933,3.933,0,0,1-.98.34,6.155,6.155,0,0,1-1.21.09Zm-.12-4.69a.847.847,0,0,0-.6.23,1.082,1.082,0,0,0-.28.71h1.74a1,1,0,0,0-.24-.68.785.785,0,0,0-.62-.25Z" fill="#3f5d8c"></path>
      <path d="M30.52,51.92l-1.55-5.45h-.05c.07.93.11,1.65.11,2.16v3.28H27.22V44.35h2.72l1.58,5.37h.04l1.55-5.37h2.73v7.56H33.96V48.02c0-.21.03-.73.07-1.55h-.05l-1.53,5.44H30.51Z" fill="#3f5d8c"></path>
      <path d="M42.94,48.97a3.107,3.107,0,0,1-.77,2.24,2.883,2.883,0,0,1-2.17.8,2.721,2.721,0,0,1-2.12-.82,3.062,3.062,0,0,1-.79-2.22,3.131,3.131,0,0,1,.77-2.23,2.878,2.878,0,0,1,2.17-.79,3.068,3.068,0,0,1,1.53.37,2.579,2.579,0,0,1,1.02,1.05,3.4,3.4,0,0,1,.36,1.6Zm-3.8,0a2.666,2.666,0,0,0,.2,1.15.707.707,0,0,0,.68.4.656.656,0,0,0,.66-.4,2.686,2.686,0,0,0,.19-1.15,2.537,2.537,0,0,0-.2-1.13.687.687,0,0,0-.67-.38.713.713,0,0,0-.67.38,2.423,2.423,0,0,0-.2,1.14Z" fill="#3f5d8c"></path>
      <path d="M45.63,51.92,43.4,46.06h2.11l.99,3.47s.01.05.02.09.02.09.03.15a1.127,1.127,0,0,0,.03.18c0,.06.01.12.01.18h.04a2.1,2.1,0,0,1,.09-.58l1.04-3.48h2.11l-2.23,5.86h-2Z" fill="#3f5d8c"></path>
      <path d="M53.39,52.02a3.128,3.128,0,0,1-2.27-.78,2.938,2.938,0,0,1-.81-2.22,3.248,3.248,0,0,1,.75-2.28,3.34,3.34,0,0,1,4.19-.1,2.623,2.623,0,0,1,.72,1.99v.9H52.35a.979.979,0,0,0,.36.77,1.385,1.385,0,0,0,.92.28,4.279,4.279,0,0,0,.98-.1,5.146,5.146,0,0,0,.97-.34v1.45a3.933,3.933,0,0,1-.98.34,6.155,6.155,0,0,1-1.21.09Zm-.12-4.69a.847.847,0,0,0-.6.23,1.082,1.082,0,0,0-.28.71h1.74a1,1,0,0,0-.24-.68.785.785,0,0,0-.62-.25Z" fill="#3f5d8c"></path>
      <path d="M62,51.92H59.99V44.36h4.47V46H62v1.44h2.27v1.64H62v2.84Z" fill="#3f5d8c"></path>
      <path d="M69.75,51.92l-.25-.73h-.12a1.594,1.594,0,0,1-.71.62,2.539,2.539,0,0,1-1.06.21,2.007,2.007,0,0,1-1.51-.56,2.187,2.187,0,0,1-.54-1.59V46.05h2.02v3.2a1.848,1.848,0,0,0,.16.87.561.561,0,0,0,.54.29.793.793,0,0,0,.75-.41,3.11,3.11,0,0,0,.22-1.39V46.04h2.02V51.9H69.74Z" fill="#3f5d8c"></path>
      <path d="M76.21,45.95a2.666,2.666,0,0,1,.5.04l.11.02-.18,1.91a3.142,3.142,0,0,0-.69-.06,1.315,1.315,0,0,0-.96.3,1.178,1.178,0,0,0-.3.87v2.88H72.67V46.05h1.5l.32.94h.1a1.965,1.965,0,0,1,.71-.75,1.737,1.737,0,0,1,.91-.29Z" fill="#3f5d8c"></path>
      <path d="M81.34,51.92v-3.2a1.851,1.851,0,0,0-.17-.88.569.569,0,0,0-.54-.3.788.788,0,0,0-.74.41,3.1,3.1,0,0,0-.23,1.4v2.57H77.64V46.06h1.53l.25.72h.12a1.561,1.561,0,0,1,.72-.62,2.524,2.524,0,0,1,1.05-.21,2.007,2.007,0,0,1,1.51.56,2.22,2.22,0,0,1,.54,1.59v3.81H81.34Z" fill="#3f5d8c"></path>
      <path d="M84.7,44.6a.862.862,0,0,1,.25-.68,1.607,1.607,0,0,1,1.64.01.859.859,0,0,1,.26.67c0,.59-.36.89-1.08.89s-1.07-.3-1.07-.89Zm2.07,7.32H84.75V46.06h2.02Z" fill="#3f5d8c"></path>
      <path d="M91.05,50.42a3.153,3.153,0,0,0,.98-.2v1.47a3.7,3.7,0,0,1-.78.25,4.447,4.447,0,0,1-.87.08,1.9,1.9,0,0,1-1.47-.5,2.22,2.22,0,0,1-.45-1.53V47.57h-.71v-.82l.9-.64.52-1.23h1.32v1.17h1.44v1.52H90.49v2.28c0,.38.18.57.55.57Z" fill="#3f5d8c"></path>
      <path d="M97.23,51.92l-.25-.73h-.12a1.594,1.594,0,0,1-.71.62,2.539,2.539,0,0,1-1.06.21,2.007,2.007,0,0,1-1.51-.56,2.187,2.187,0,0,1-.54-1.59V46.05h2.02v3.2a1.848,1.848,0,0,0,.16.87.561.561,0,0,0,.54.29.793.793,0,0,0,.75-.41,3.11,3.11,0,0,0,.22-1.39V46.04h2.02V51.9H97.22Z" fill="#3f5d8c"></path>
      <path d="M103.69,45.95a2.666,2.666,0,0,1,.5.04l.11.02-.18,1.91a3.142,3.142,0,0,0-.69-.06,1.315,1.315,0,0,0-.96.3,1.178,1.178,0,0,0-.3.87v2.88h-2.02V46.05h1.5l.32.94h.1a1.965,1.965,0,0,1,.71-.75,1.737,1.737,0,0,1,.91-.29Z" fill="#3f5d8c"></path>
      <path d="M107.95,52.02a3.128,3.128,0,0,1-2.27-.78,2.938,2.938,0,0,1-.81-2.22,3.248,3.248,0,0,1,.75-2.28,3.34,3.34,0,0,1,4.19-.1,2.623,2.623,0,0,1,.72,1.99v.9h-3.62a.979.979,0,0,0,.36.77,1.385,1.385,0,0,0,.92.28,4.279,4.279,0,0,0,.98-.1,5.146,5.146,0,0,0,.97-.34v1.45a3.933,3.933,0,0,1-.98.34,6.155,6.155,0,0,1-1.21.09Zm-.12-4.69a.847.847,0,0,0-.6.23,1.082,1.082,0,0,0-.28.71h1.74a1,1,0,0,0-.24-.68.785.785,0,0,0-.62-.25Z" fill="#3f5d8c"></path>
      <path d="M14.63,71.52H10.52V56.08h9.12v3.35H14.62v2.95h4.63v3.35H14.62v5.8Z" fill="#db8c3f"></path>
      <path d="M36.63,63.78a8.328,8.328,0,0,1-1.91,5.92,7.332,7.332,0,0,1-5.6,2.03,7.258,7.258,0,0,1-5.57-2.04,8.315,8.315,0,0,1-1.94-5.94,8.181,8.181,0,0,1,1.93-5.89,7.324,7.324,0,0,1,5.6-2.03,7.319,7.319,0,0,1,5.59,2.02c1.27,1.35,1.9,3.32,1.9,5.93ZM26,63.78q0,4.485,3.12,4.48a2.664,2.664,0,0,0,2.35-1.09,5.958,5.958,0,0,0,.77-3.39,6.024,6.024,0,0,0-.78-3.42,2.64,2.64,0,0,0-2.32-1.1Q26,59.26,26,63.78Z" fill="#db8c3f"></path>
      <path d="M43.59,65.9v5.62H39.42V56.08h5.06c4.2,0,6.29,1.52,6.29,4.56a4.552,4.552,0,0,1-2.62,4.15l4.5,6.73H47.92L44.65,65.9H43.59Zm0-3.14h.78c1.46,0,2.19-.64,2.19-1.93,0-1.06-.71-1.59-2.14-1.59H43.6v3.53Z" fill="#db8c3f"></path>
      <path d="M65.19,61.8l2.66-5.72h4.52l-5.08,9.41v6.03h-4.2v-5.9l-5.08-9.54h4.54l2.64,5.72Z" fill="#db8c3f"></path>
      <path d="M88.49,63.78a8.328,8.328,0,0,1-1.91,5.92,7.332,7.332,0,0,1-5.6,2.03,7.258,7.258,0,0,1-5.57-2.04,8.315,8.315,0,0,1-1.94-5.94,8.181,8.181,0,0,1,1.93-5.89A7.324,7.324,0,0,1,81,55.83a7.319,7.319,0,0,1,5.59,2.02C87.86,59.2,88.49,61.17,88.49,63.78Zm-10.63,0q0,4.485,3.12,4.48a2.664,2.664,0,0,0,2.35-1.09,5.958,5.958,0,0,0,.77-3.39,6.024,6.024,0,0,0-.78-3.42A2.64,2.64,0,0,0,81,59.26q-3.135,0-3.14,4.52Z" fill="#db8c3f"></path>
      <path d="M104.4,56.08v9.29a6.207,6.207,0,0,1-1.72,4.69,6.81,6.81,0,0,1-4.95,1.66,6.654,6.654,0,0,1-4.85-1.62,6.133,6.133,0,0,1-1.7-4.65V56.06h4.19v9.06a3.731,3.731,0,0,0,.61,2.38,2.224,2.224,0,0,0,1.81.74,2.2,2.2,0,0,0,1.85-.73,3.951,3.951,0,0,0,.58-2.4V56.07h4.17Z" fill="#db8c3f"></path>
    </g>
  </g>
</svg>
